<?xml version="1.0" encoding="UTF-8" standalone="no"?>
<!DOCTYPE svg PUBLIC "-//W3C//DTD SVG 1.1//EN"
 "http://www.w3.org/Graphics/SVG/1.1/DTD/svg11.dtd">
<!-- Generated by graphviz version 2.43.0 (0)
 -->
<!-- Title: finite_state_machine Pages: 1 -->
<svg width="613pt" height="255pt"
 viewBox="0.00 0.00 612.79 254.80" xmlns="http://www.w3.org/2000/svg" xmlns:xlink="http://www.w3.org/1999/xlink">
<g id="graph0" class="graph" transform="scale(1 1) rotate(0) translate(4 250.8)">
<title>finite_state_machine</title>
<polygon fill="white" stroke="transparent" points="-4,4 -4,-250.8 608.79,-250.8 608.79,4 -4,4"/>
<!-- 0 -->
<g id="node1" class="node">
<title>0</title>
<ellipse fill="none" stroke="black" cx="22" cy="-122" rx="18" ry="18"/>
<ellipse fill="none" stroke="black" cx="22" cy="-122" rx="22" ry="22"/>
<text text-anchor="middle" x="22" y="-118.3" font-family="Helvetica,Arial,sans-serif" font-size="14.00">0</text>
</g>
<!-- 2 -->
<g id="node9" class="node">
<title>2</title>
<ellipse fill="none" stroke="black" cx="160" cy="-58" rx="18" ry="18"/>
<text text-anchor="middle" x="160" y="-54.3" font-family="Helvetica,Arial,sans-serif" font-size="14.00">2</text>
</g>
<!-- 0&#45;&gt;2 -->
<g id="edge18" class="edge">
<title>0&#45;&gt;2</title>
<path fill="none" stroke="black" d="M39.36,-108.16C46.08,-102.93 54.12,-97.23 62,-93 84.7,-80.81 112.53,-71.26 132.55,-65.24"/>
<polygon fill="black" stroke="black" points="133.62,-68.58 142.24,-62.42 131.66,-61.86 133.62,-68.58"/>
<text text-anchor="middle" x="66" y="-96.8" font-family="Helvetica,Arial,sans-serif" font-size="14.00">2</text>
</g>
<!-- 3 -->
<g id="node12" class="node">
<title>3</title>
<ellipse fill="none" stroke="black" cx="106" cy="-176" rx="18" ry="18"/>
<text text-anchor="middle" x="106" y="-172.3" font-family="Helvetica,Arial,sans-serif" font-size="14.00">3</text>
</g>
<!-- 0&#45;&gt;3 -->
<g id="edge17" class="edge">
<title>0&#45;&gt;3</title>
<path fill="none" stroke="black" d="M40.79,-133.72C52.89,-141.68 69,-152.29 82.05,-160.89"/>
<polygon fill="black" stroke="black" points="80.24,-163.89 90.52,-166.46 84.09,-158.04 80.24,-163.89"/>
<text text-anchor="middle" x="66" y="-155.8" font-family="Helvetica,Arial,sans-serif" font-size="14.00">2</text>
</g>
<!-- 1 -->
<g id="node13" class="node">
<title>1</title>
<ellipse fill="none" stroke="black" cx="214" cy="-122" rx="18" ry="18"/>
<text text-anchor="middle" x="214" y="-118.3" font-family="Helvetica,Arial,sans-serif" font-size="14.00">1</text>
</g>
<!-- 0&#45;&gt;1 -->
<g id="edge19" class="edge">
<title>0&#45;&gt;1</title>
<path fill="none" stroke="black" d="M44.06,-122C78.53,-122 147,-122 185.34,-122"/>
<polygon fill="black" stroke="black" points="185.75,-125.5 195.75,-122 185.75,-118.5 185.75,-125.5"/>
<text text-anchor="middle" x="106" y="-125.8" font-family="Helvetica,Arial,sans-serif" font-size="14.00">3</text>
</g>
<!-- 12 -->
<g id="node2" class="node">
<title>12</title>
<ellipse fill="none" stroke="black" cx="579.99" cy="-25" rx="20.63" ry="20.63"/>
<ellipse fill="none" stroke="black" cx="579.99" cy="-25" rx="24.6" ry="24.6"/>
<text text-anchor="middle" x="579.99" y="-21.3" font-family="Helvetica,Arial,sans-serif" font-size="14.00">12</text>
</g>
<!-- 6 -->
<g id="node3" class="node">
<title>6</title>
<ellipse fill="none" stroke="black" cx="296.8" cy="-169" rx="18" ry="18"/>
<text text-anchor="middle" x="296.8" y="-165.3" font-family="Helvetica,Arial,sans-serif" font-size="14.00">6</text>
</g>
<!-- 9 -->
<g id="node4" class="node">
<title>9</title>
<ellipse fill="none" stroke="black" cx="407.6" cy="-174" rx="18" ry="18"/>
<text text-anchor="middle" x="407.6" y="-170.3" font-family="Helvetica,Arial,sans-serif" font-size="14.00">9</text>
</g>
<!-- 6&#45;&gt;9 -->
<g id="edge1" class="edge">
<title>6&#45;&gt;9</title>
<path fill="none" stroke="black" d="M314.8,-169.78C332.02,-170.57 358.94,-171.81 379.18,-172.74"/>
<polygon fill="black" stroke="black" points="379.21,-176.24 389.36,-173.21 379.53,-169.25 379.21,-176.24"/>
<text text-anchor="middle" x="353.6" y="-175.8" font-family="Helvetica,Arial,sans-serif" font-size="14.00">2</text>
</g>
<!-- 10 -->
<g id="node6" class="node">
<title>10</title>
<ellipse fill="none" stroke="black" cx="490.39" cy="-72" rx="20.6" ry="20.6"/>
<text text-anchor="middle" x="490.39" y="-68.3" font-family="Helvetica,Arial,sans-serif" font-size="14.00">10</text>
</g>
<!-- 9&#45;&gt;10 -->
<g id="edge9" class="edge">
<title>9&#45;&gt;10</title>
<path fill="none" stroke="black" d="M422.84,-163.71C431.77,-156.81 443.16,-147.15 451.6,-137 460.95,-125.75 469.35,-111.9 475.85,-99.87"/>
<polygon fill="black" stroke="black" points="479.11,-101.19 480.63,-90.71 472.9,-97.95 479.11,-101.19"/>
<text text-anchor="middle" x="447.6" y="-147.8" font-family="Helvetica,Arial,sans-serif" font-size="14.00">3</text>
</g>
<!-- 4 -->
<g id="node5" class="node">
<title>4</title>
<ellipse fill="none" stroke="black" cx="353.6" cy="-123" rx="18" ry="18"/>
<text text-anchor="middle" x="353.6" y="-119.3" font-family="Helvetica,Arial,sans-serif" font-size="14.00">4</text>
</g>
<!-- 4&#45;&gt;10 -->
<g id="edge2" class="edge">
<title>4&#45;&gt;10</title>
<path fill="none" stroke="black" d="M370.59,-116.95C392.82,-108.54 433.44,-93.17 460.92,-82.77"/>
<polygon fill="black" stroke="black" points="462.28,-86 470.39,-79.19 459.8,-79.45 462.28,-86"/>
<text text-anchor="middle" x="407.6" y="-113.8" font-family="Helvetica,Arial,sans-serif" font-size="14.00">2</text>
</g>
<!-- 10&#45;&gt;12 -->
<g id="edge8" class="edge">
<title>10&#45;&gt;12</title>
<path fill="none" stroke="black" d="M509.12,-62.49C520.58,-56.34 535.77,-48.19 549.06,-41.06"/>
<polygon fill="black" stroke="black" points="550.74,-44.13 557.89,-36.32 547.43,-37.96 550.74,-44.13"/>
<text text-anchor="middle" x="533.19" y="-55.8" font-family="Helvetica,Arial,sans-serif" font-size="14.00">6</text>
</g>
<!-- 7 -->
<g id="node7" class="node">
<title>7</title>
<ellipse fill="none" stroke="black" cx="407.6" cy="-18" rx="18" ry="18"/>
<text text-anchor="middle" x="407.6" y="-14.3" font-family="Helvetica,Arial,sans-serif" font-size="14.00">7</text>
</g>
<!-- 7&#45;&gt;12 -->
<g id="edge4" class="edge">
<title>7&#45;&gt;12</title>
<path fill="none" stroke="black" d="M425.87,-18.71C453.75,-19.85 509.15,-22.13 545.12,-23.61"/>
<polygon fill="black" stroke="black" points="545.02,-27.11 555.15,-24.02 545.3,-20.11 545.02,-27.11"/>
<text text-anchor="middle" x="490.39" y="-26.8" font-family="Helvetica,Arial,sans-serif" font-size="14.00">1</text>
</g>
<!-- 7&#45;&gt;10 -->
<g id="edge3" class="edge">
<title>7&#45;&gt;10</title>
<path fill="none" stroke="black" d="M424.01,-26.33C432.34,-30.99 442.7,-37.04 451.6,-43 456.12,-46.03 460.81,-49.42 465.29,-52.78"/>
<polygon fill="black" stroke="black" points="463.48,-55.8 473.54,-59.12 467.74,-50.25 463.48,-55.8"/>
<text text-anchor="middle" x="447.6" y="-46.8" font-family="Helvetica,Arial,sans-serif" font-size="14.00">0</text>
</g>
<!-- 5 -->
<g id="node8" class="node">
<title>5</title>
<ellipse fill="none" stroke="black" cx="296.8" cy="-62" rx="18" ry="18"/>
<text text-anchor="middle" x="296.8" y="-58.3" font-family="Helvetica,Arial,sans-serif" font-size="14.00">5</text>
</g>
<!-- 5&#45;&gt;10 -->
<g id="edge5" class="edge">
<title>5&#45;&gt;10</title>
<path fill="none" stroke="black" d="M314.8,-62.89C347.34,-64.59 418.78,-68.31 459.47,-70.44"/>
<polygon fill="black" stroke="black" points="459.42,-73.94 469.59,-70.97 459.79,-66.95 459.42,-73.94"/>
<text text-anchor="middle" x="407.6" y="-72.8" font-family="Helvetica,Arial,sans-serif" font-size="14.00">1</text>
</g>
<!-- 5&#45;&gt;7 -->
<g id="edge6" class="edge">
<title>5&#45;&gt;7</title>
<path fill="none" stroke="black" d="M313.04,-53.78C319.85,-50.26 328.03,-46.22 335.6,-43 350.26,-36.76 367.06,-30.8 380.64,-26.26"/>
<polygon fill="black" stroke="black" points="381.89,-29.53 390.3,-23.08 379.71,-22.88 381.89,-29.53"/>
<text text-anchor="middle" x="353.6" y="-46.8" font-family="Helvetica,Arial,sans-serif" font-size="14.00">1</text>
</g>
<!-- 2&#45;&gt;5 -->
<g id="edge7" class="edge">
<title>2&#45;&gt;5</title>
<path fill="none" stroke="black" d="M178.07,-58.51C200.74,-59.18 241.04,-60.38 268.09,-61.18"/>
<polygon fill="black" stroke="black" points="268.34,-64.69 278.44,-61.48 268.55,-57.69 268.34,-64.69"/>
<text text-anchor="middle" x="214" y="-64.8" font-family="Helvetica,Arial,sans-serif" font-size="14.00">2</text>
</g>
<!-- 11 -->
<g id="node10" class="node">
<title>11</title>
<ellipse fill="none" stroke="black" cx="296.8" cy="-226" rx="20.6" ry="20.6"/>
<text text-anchor="middle" x="296.8" y="-222.3" font-family="Helvetica,Arial,sans-serif" font-size="14.00">11</text>
</g>
<!-- 11&#45;&gt;9 -->
<g id="edge10" class="edge">
<title>11&#45;&gt;9</title>
<path fill="none" stroke="black" d="M316.02,-217.42C330.97,-210.36 352.68,-200.08 371.6,-191 374.86,-189.43 378.3,-187.78 381.68,-186.14"/>
<polygon fill="black" stroke="black" points="383.46,-189.16 390.93,-181.65 380.41,-182.87 383.46,-189.16"/>
<text text-anchor="middle" x="353.6" y="-210.8" font-family="Helvetica,Arial,sans-serif" font-size="14.00">1</text>
</g>
<!-- 8 -->
<g id="node11" class="node">
<title>8</title>
<ellipse fill="none" stroke="black" cx="214" cy="-176" rx="18" ry="18"/>
<text text-anchor="middle" x="214" y="-172.3" font-family="Helvetica,Arial,sans-serif" font-size="14.00">8</text>
</g>
<!-- 8&#45;&gt;11 -->
<g id="edge11" class="edge">
<title>8&#45;&gt;11</title>
<path fill="none" stroke="black" d="M229.82,-185.17C241.07,-192.13 256.82,-201.88 270.11,-210.11"/>
<polygon fill="black" stroke="black" points="268.49,-213.22 278.84,-215.5 272.17,-207.26 268.49,-213.22"/>
<text text-anchor="middle" x="254" y="-205.8" font-family="Helvetica,Arial,sans-serif" font-size="14.00">1</text>
</g>
<!-- 3&#45;&gt;6 -->
<g id="edge13" class="edge">
<title>3&#45;&gt;6</title>
<path fill="none" stroke="black" d="M121.36,-186.18C148.94,-204.39 210.8,-238.61 258,-216 261.04,-214.54 270.58,-202.66 279.32,-191.21"/>
<polygon fill="black" stroke="black" points="282.21,-193.2 285.43,-183.11 276.62,-188.98 282.21,-193.2"/>
<text text-anchor="middle" x="214" y="-226.8" font-family="Helvetica,Arial,sans-serif" font-size="14.00">1</text>
</g>
<!-- 3&#45;&gt;8 -->
<g id="edge12" class="edge">
<title>3&#45;&gt;8</title>
<path fill="none" stroke="black" d="M124.03,-176C140.62,-176 166.12,-176 185.57,-176"/>
<polygon fill="black" stroke="black" points="185.66,-179.5 195.66,-176 185.66,-172.5 185.66,-179.5"/>
<text text-anchor="middle" x="160" y="-179.8" font-family="Helvetica,Arial,sans-serif" font-size="14.00">1</text>
</g>
<!-- 1&#45;&gt;6 -->
<g id="edge16" class="edge">
<title>1&#45;&gt;6</title>
<path fill="none" stroke="black" d="M229.82,-130.62C241.59,-137.47 258.28,-147.18 271.93,-155.12"/>
<polygon fill="black" stroke="black" points="270.4,-158.27 280.8,-160.27 273.91,-152.22 270.4,-158.27"/>
<text text-anchor="middle" x="254" y="-149.8" font-family="Helvetica,Arial,sans-serif" font-size="14.00">1</text>
</g>
<!-- 1&#45;&gt;4 -->
<g id="edge15" class="edge">
<title>1&#45;&gt;4</title>
<path fill="none" stroke="black" d="M232.15,-122.12C255.43,-122.29 297.29,-122.6 325.02,-122.8"/>
<polygon fill="black" stroke="black" points="325.21,-126.3 335.23,-122.87 325.26,-119.3 325.21,-126.3"/>
<text text-anchor="middle" x="254" y="-126.8" font-family="Helvetica,Arial,sans-serif" font-size="14.00">2</text>
</g>
<!-- 1&#45;&gt;5 -->
<g id="edge14" class="edge">
<title>1&#45;&gt;5</title>
<path fill="none" stroke="black" d="M226.1,-108.66C232.58,-101.39 241.2,-92.57 250,-86 256.33,-81.28 263.72,-76.96 270.69,-73.34"/>
<polygon fill="black" stroke="black" points="272.38,-76.41 279.81,-68.85 269.29,-70.13 272.38,-76.41"/>
<text text-anchor="middle" x="254" y="-89.8" font-family="Helvetica,Arial,sans-serif" font-size="14.00">0</text>
</g>
</g>
</svg>
